<svg width="80" height="60" viewBox="0 0 80 60" fill="none" xmlns="http://www.w3.org/2000/svg">
<path d="M4 24.5H4.5V24V4C4.5 3.07174 4.86875 2.1815 5.52513 1.52513C6.1815 0.86875 7.07174 0.5 8 0.5H24C24.9283 0.5 25.8185 0.86875 26.4749 1.52513C27.1313 2.1815 27.5 3.07174 27.5 4V24V24.5H28H36H36.5V24V16C36.5 15.0717 36.8688 14.1815 37.5251 13.5251C38.1815 12.8687 39.0717 12.5 40 12.5C40.9283 12.5 41.8185 12.8687 42.4749 13.5251C43.1312 14.1815 43.5 15.0717 43.5 16V24V24.5H44H52C52.9283 24.5 53.8185 24.8687 54.4749 25.5251C55.1312 26.1815 55.5 27.0717 55.5 28L55.5 28.0051L55.6149 39.38H51.1175C49.5611 36.9735 46.8809 35.5 44 35.5H8C5.11908 35.5 2.43888 36.9735 0.882516 39.38H0.62V27.1022C1.0241 25.5587 2.40767 24.5 4 24.5ZM12 7.5H11.5V8V28V28.5H12H20H20.5V28V8V7.5H20H12ZM67.5068 52.0822L67.5563 52.3791L67.8419 52.4743L79.5 56.3604V59.5H60.5V28.5H63.5764L67.5068 52.0822ZM2.6967 46.6967C4.10322 45.2902 6.01088 44.5 8 44.5H44C45.9891 44.5 47.8968 45.2902 49.3033 46.6967C50.7098 48.1032 51.5 50.0109 51.5 52C51.5 53.9891 50.7098 55.8968 49.3033 57.3033C47.8968 58.7098 45.9891 59.5 44 59.5H8C6.01088 59.5 4.10322 58.7098 2.6967 57.3033C1.29018 55.8968 0.5 53.9891 0.5 52C0.5 50.0109 1.29018 48.1032 2.6967 46.6967Z" fill="#E941A1" stroke="#E941A1"/>
</svg>
