<svg width="56" height="57" viewBox="0 0 56 57" fill="none" xmlns="http://www.w3.org/2000/svg">
<path d="M55.3141 23.3124H28.4814V34.3411H43.8102C43.1492 37.9059 41.144 40.9212 38.1213 42.9412C35.5665 44.6494 32.3062 45.6594 28.474 45.6594C21.0547 45.6594 14.7792 40.6464 12.5363 33.9104C11.9719 32.2022 11.6451 30.3752 11.6451 28.4963C11.6451 26.6173 11.9719 24.7904 12.5363 23.0822C14.7866 16.3536 21.0621 11.3406 28.4814 11.3406C32.6627 11.3406 36.4132 12.7814 39.369 15.6035L47.5384 7.42671C42.5996 2.82215 36.1606 0 28.4814 0C17.3488 0 7.71635 6.38697 3.0301 15.7001C1.09915 19.5471 0 23.8992 0 28.5037C0 33.1083 1.09915 37.4529 3.0301 41.2999C7.71635 50.613 17.3488 57 28.4814 57C36.1755 57 42.6219 54.4452 47.3304 50.0932C52.7148 45.1321 55.8266 37.8242 55.8266 29.1424C55.8266 27.1223 55.6483 25.184 55.3141 23.3124Z" fill="white"/>
</svg>
