<svg width="64" height="60" viewBox="0 0 64 60" fill="none" xmlns="http://www.w3.org/2000/svg">
<path d="M47.3684 15.2895V15.7895C47.3684 15.2895 47.3681 15.2895 47.3676 15.2895L47.3661 15.2895L47.3608 15.2895L47.3418 15.2896C47.3254 15.2897 47.3014 15.29 47.2701 15.2904C47.2075 15.2914 47.1156 15.2932 46.996 15.2968C46.7569 15.3041 46.407 15.3187 45.9593 15.3476C45.0639 15.4054 43.7768 15.5208 42.2015 15.7512C39.0521 16.2117 34.7446 17.1328 30.1112 18.9762C21.0035 22.5997 10.6221 29.7957 5.33597 44.0547C5.24751 43.9538 5.15024 43.8407 5.04568 43.7162C4.53838 43.1123 3.86147 42.242 3.18499 41.1789C1.82543 39.0425 0.5 36.1782 0.5 33.1579C0.5 30.1338 2.02657 25.3051 5.52533 20.8345C9.01217 16.3791 14.4376 12.3066 22.2033 10.7534C26.1353 9.96706 30.4646 9.32733 34.8072 8.71049C35.4044 8.62565 36.002 8.54124 36.5988 8.45693C40.3357 7.92906 44.0421 7.40549 47.4546 6.8083C51.409 6.11628 54.9973 5.32081 57.8035 4.29354C59.619 3.62891 61.1638 2.84779 62.2623 1.89313C62.2407 1.99148 62.2183 2.09315 62.1949 2.19806C61.8698 3.65793 61.3664 5.7455 60.6539 8.25142C59.2285 13.2651 56.9688 19.9443 53.6317 26.6185C46.9413 39.9993 36.0158 53.1842 18.9474 53.1842C17.9006 53.1842 16.3893 52.7991 14.8827 52.2655L14.435 52.107L14.2537 52.546L11.4342 59.3721L6.40647 57.6163C6.61941 57.0854 6.83249 56.5517 7.04644 56.0159C10.0767 48.4265 13.2832 40.3959 18.7568 33.407C24.7166 25.7974 33.3787 19.4105 47.4769 16.2776L47.3684 15.2895Z" fill="#41ADD9" stroke="#41ADD9"/>
</svg>
