<svg width="63" height="60" viewBox="0 0 63 60" fill="none" xmlns="http://www.w3.org/2000/svg">
<path d="M44.9159 42.8962L40.8727 38.87L54.7406 25.0929L55.0973 24.7386L54.7411 24.3839L51.528 21.1844L51.1764 20.8343L50.8236 21.1831L46.4237 25.5336L34.5804 13.7402L47.076 1.32962L47.0765 1.32916C48.192 0.218337 50.0446 0.232023 51.0809 1.31976L51.0808 1.31988L51.0901 1.32916L58.922 9.12808L58.9219 9.1282L58.9315 9.13724C60.0226 10.1681 60.0364 12.0091 58.922 13.1188L58.9069 13.1339C58.349 13.6895 57.7684 14.2676 57.3251 14.8489C56.885 15.4259 56.526 16.0738 56.4997 16.7751C56.4381 17.4932 56.7905 18.1576 57.2149 18.7196C57.6458 19.2903 58.2237 19.8477 58.7491 20.3546L58.7539 20.3592C58.862 20.4714 58.9693 20.582 59.0752 20.6914C59.7674 21.4057 60.4046 22.0634 60.8902 22.7161C61.451 23.47 61.7471 24.1384 61.7206 24.7844C61.6936 25.4425 61.3291 26.1728 60.6994 26.9859C60.0758 27.7912 59.2481 28.6088 58.39 29.4464L58.39 29.4464L58.3861 29.4503L44.9159 42.8962ZM0.5 47.7093L31.9972 16.312L43.8397 28.1046L12.3445 59.5H0.5V47.7093Z" fill="#E941A1" stroke="#E941A1"/>
</svg>
