<svg width="93" height="93" viewBox="0 0 93 93" fill="none" xmlns="http://www.w3.org/2000/svg">
<circle cx="46.5" cy="46.5" r="46" fill="#1B2F66" stroke="#1B2F66"/>
<path d="M47 47.2557C53.3538 47.2557 58.5 42.276 58.5 36.1278C58.5 29.9797 53.3538 25 47 25C40.6462 25 35.5 29.9797 35.5 36.1278C35.5 42.276 40.6462 47.2557 47 47.2557ZM47 52.8196C39.3237 52.8196 24 56.5475 24 63.9475V66.7294C24 68.2595 25.2937 69.5114 26.875 69.5114H67.125C68.7062 69.5114 70 68.2595 70 66.7294V63.9475C70 56.5475 54.6763 52.8196 47 52.8196Z" fill="white"/>
</svg>
