<svg width="57" height="57" viewBox="0 0 57 57" fill="none" xmlns="http://www.w3.org/2000/svg">
<path d="M48.6935 8.29364C46.0675 5.65434 42.9396 3.56171 39.4922 2.13781C36.0449 0.713906 32.3471 -0.0127683 28.6146 0.000169773C12.9754 0.000169773 0.229146 12.6826 0.229146 28.2436C0.229146 33.2311 1.54673 38.0761 4.01005 42.351L0 57L15.0377 53.067C19.191 55.3185 23.8598 56.5155 28.6146 56.5155C44.2538 56.5155 57 43.833 57 28.2721C57 20.7196 54.0497 13.6231 48.6935 8.29364ZM28.6146 51.7275C24.3754 51.7275 20.2221 50.5875 16.5844 48.45L15.7251 47.937L6.78844 50.274L9.16583 41.61L8.59297 40.7266C6.23777 36.9844 4.98719 32.6589 4.98392 28.2436C4.98392 15.3046 15.5819 4.75966 28.5859 4.75966C34.8874 4.75966 40.8166 7.21065 45.2563 11.6566C47.4546 13.8339 49.1967 16.4237 50.3817 19.2759C51.5666 22.128 52.1708 25.1859 52.1593 28.2721C52.2166 41.211 41.6186 51.7275 28.6146 51.7275ZM41.5613 34.1716C40.8452 33.8296 37.3508 32.1196 36.7206 31.8631C36.0618 31.6351 35.6035 31.5211 35.1166 32.2051C34.6296 32.9176 33.2834 34.5136 32.8824 34.9696C32.4814 35.4541 32.0518 35.5111 31.3357 35.1406C30.6196 34.7986 28.3281 34.0291 25.6357 31.6351C23.5161 29.7541 22.1126 27.4456 21.6829 26.7331C21.2819 26.0206 21.6256 25.6501 21.998 25.2796C22.3131 24.9661 22.7141 24.4531 23.0578 24.0541C23.4015 23.6551 23.5447 23.3416 23.7739 22.8856C24.003 22.4011 23.8884 22.0021 23.7166 21.6601C23.5447 21.3181 22.1126 17.8411 21.5397 16.4161C20.9668 15.0481 20.3653 15.2191 19.9357 15.1906H18.5608C18.0739 15.1906 17.3291 15.3616 16.6704 16.0741C16.0402 16.7866 14.207 18.4966 14.207 21.9736C14.207 25.4506 16.7563 28.8136 17.1 29.2696C17.4437 29.7541 22.1126 36.8791 29.2161 39.9286C30.906 40.6695 32.2236 41.097 33.2548 41.4105C34.9447 41.952 36.4915 41.8665 37.7231 41.6955C39.098 41.496 41.9337 39.9855 42.5065 38.3326C43.108 36.6796 43.108 35.2831 42.9075 34.9696C42.707 34.6561 42.2774 34.5136 41.5613 34.1716Z" fill="white"/>
</svg>
