<svg width="148" height="211" viewBox="0 0 148 211" fill="none" xmlns="http://www.w3.org/2000/svg">
<path fill-rule="evenodd" clip-rule="evenodd" d="M62.9804 113.073L6.94422 7.67318C6.62229 7.06772 6.42277 6.40478 6.35705 5.72221C6.29132 5.03964 6.36069 4.35081 6.56117 3.69505C6.96607 2.37067 7.88049 1.26139 9.10327 0.611224C10.3261 -0.0389414 11.757 -0.176729 13.0814 0.228172C13.7372 0.428658 14.347 0.756343 14.8761 1.19252C15.4053 1.62869 15.8433 2.16482 16.1652 2.77028L72.2066 108.17L80.1536 103.94C82.5757 102.653 85.2277 101.855 87.9583 101.592C90.6888 101.329 93.4443 101.607 96.0675 102.41C98.6906 103.212 101.13 104.524 103.246 106.269C105.363 108.014 107.114 110.159 108.401 112.582L111.785 118.947L147.656 171.443L102.031 195.696L86.2261 164.456L76.9111 169.171L92.8103 200.604L73.2509 211L49.7807 151.904L46.4024 145.544C45.1145 143.123 44.3163 140.471 44.0533 137.741C43.7903 135.01 44.0677 132.255 44.8697 129.632C45.6717 127.009 46.9825 124.569 48.7273 122.453C50.472 120.336 52.6167 118.584 55.0386 117.297L62.9804 113.073ZM85.0513 113.166L59.9363 126.518C58.7253 127.161 57.653 128.037 56.7806 129.096C55.9082 130.154 55.2528 131.374 54.8518 132.685C54.4508 133.997 54.3121 135.374 54.4436 136.74C54.5751 138.105 54.9742 139.431 55.6182 140.642L58.9964 147.001L102.559 123.839L99.1752 117.485C98.5314 116.274 97.6553 115.201 96.5971 114.329C95.5389 113.457 94.3191 112.801 93.0076 112.4C91.696 111.999 90.3184 111.86 88.9532 111.992C87.588 112.123 86.2622 112.523 85.0513 113.166Z" fill="#41ADD9"/>
<path d="M40.5599 164.023C39.6741 162.959 38.4021 162.29 37.0235 162.164C35.6448 162.038 34.2725 162.464 33.2082 163.349H33.2186L33.1612 163.391L32.8322 163.642C32.365 163.993 31.8879 164.33 31.4015 164.655C30.1066 165.516 28.1747 166.691 25.6893 167.871C19.3009 170.941 12.3093 172.552 5.22141 172.586C3.8366 172.586 2.50852 173.136 1.52932 174.115C0.550112 175.094 0 176.422 0 177.807C0 179.192 0.550112 180.52 1.52932 181.499C2.50852 182.479 3.8366 183.029 5.22141 183.029C13.8628 182.995 22.3885 181.039 30.1797 177.301C32.6101 176.15 34.9552 174.827 37.1973 173.343C38.0367 172.781 38.8553 172.189 39.6514 171.568L39.808 171.448L39.8602 171.406L39.8759 171.385H39.8863L39.8915 171.375C40.9547 170.488 41.6224 169.216 41.7477 167.837C41.873 166.458 41.4458 165.086 40.5599 164.023ZM51.3369 190.574C51.7175 191.144 51.9821 191.784 52.1154 192.457C52.2487 193.129 52.2482 193.822 52.1139 194.494C51.9796 195.167 51.7141 195.806 51.3326 196.376C50.9511 196.946 50.4611 197.435 49.8905 197.816L49.8801 197.826L49.8592 197.837L49.807 197.868L49.6451 197.972C48.7411 198.547 47.8236 199.101 46.8935 199.633C45.0607 200.682 42.4553 202.076 39.3224 203.465C33.1612 206.207 24.5458 209.136 15.6642 209.136C14.2794 209.136 12.9513 208.586 11.9721 207.606C10.9929 206.627 10.4428 205.299 10.4428 203.914C10.4428 202.53 10.9929 201.201 11.9721 200.222C12.9513 199.243 14.2794 198.693 15.6642 198.693C22.4416 198.693 29.501 196.401 35.0826 193.921C37.9906 192.623 40.8125 191.141 43.5309 189.482C43.6832 189.393 43.8329 189.299 43.9799 189.2L44.0843 189.138L44.0948 189.127C44.6652 188.747 45.3051 188.482 45.9778 188.349C46.6505 188.216 47.3429 188.216 48.0154 188.35C48.6879 188.485 49.3274 188.75 49.8973 189.132C50.4672 189.513 50.9564 190.003 51.3369 190.574Z" fill="#41ADD9"/>
</svg>
