<svg width="190" height="211" viewBox="0 0 190 211" fill="none" xmlns="http://www.w3.org/2000/svg">
<path d="M42.2 211V147.7H0V105.5L84.4 68.0475V61.19C78.2458 59.08 73.1889 55.3418 69.2291 49.9754C65.2693 44.6089 63.293 38.5005 63.3 31.65C63.3 22.6825 66.3349 15.1639 72.4046 9.09411C78.4744 3.02434 85.9895 -0.00702112 94.95 1.22106e-05C103.742 1.22106e-05 111.215 3.0771 117.369 9.23126C123.523 15.3854 126.6 22.8583 126.6 31.65H105.5C105.5 28.6608 104.487 26.1535 102.462 24.1279C100.436 22.1023 97.9321 21.093 94.95 21.1C91.9608 21.1 89.4534 22.1128 87.4278 24.1384C85.4022 26.164 84.393 28.6679 84.4 31.65C84.4 34.6392 85.4128 37.1466 87.4384 39.1722C89.464 41.1978 91.9679 42.207 94.95 42.2H105.5V68.0475L189.9 105.5V147.7H147.7V211H42.2ZM21.1 126.6H42.2V116.05H147.7V126.6H168.8V119.215L94.95 86.51L21.1 119.215V126.6Z" fill="#41ADD9"/>
</svg>
