<svg width="146" height="53" viewBox="0 0 146 53" fill="none" xmlns="http://www.w3.org/2000/svg">
<path d="M26.8727 1.08552C24.5455 2.38643 23.4545 5.31348 24.3273 7.62622C24.6545 8.45735 24.5455 8.6019 22.3636 9.64985C18.2909 11.6374 14.5818 16.4796 10 25.7667C8.54545 28.7299 6.54545 33.1385 5.6 35.5235C3.85455 39.9683 0 51.279 0 51.9656C0 52.2186 1.01818 52.327 2.98182 52.2547L5.96364 52.1463L10.1091 45.0997L14.2909 38.0531L13.6727 35.0538C13.3091 33.3915 13.0909 31.946 13.2 31.8738C13.3091 31.7653 13.8909 32.6326 14.5455 33.789C15.1636 34.9453 18.1818 39.5708 21.2 44.0879L26.7273 52.327H30.2909C32.2182 52.327 33.8182 52.2547 33.8182 52.1463C33.8182 52.0379 33.0182 50.3756 32.0364 48.4242C28.2545 40.944 24.4364 31.0426 23.6364 26.7062C23.4182 25.4776 22.9091 23.8153 22.5455 22.9842C21.6 20.9244 21.6364 19.9849 22.5818 21.611C23.9636 23.996 29.3091 27.2844 33.0182 28.0794C35.2 28.5131 40.3273 30.5367 40.9455 31.151C41.1636 31.3678 42.7636 35.6681 44.5091 40.7272L47.6364 49.9058L46.2909 51.0983L44.9091 52.2908L52.4727 52.327C59.6727 52.327 60 52.2908 60 51.6404C60 51.1345 59.3818 50.6286 57.9273 49.9058C56.1455 49.0386 55.3818 48.894 53.0909 48.9301C51.6 48.9663 50.0727 49.0386 49.7091 49.1108C49.1273 49.2192 48.5818 47.9545 45.7091 39.6069L42.4 29.9947L40.0364 28.9828C37.7818 28.0433 33.7091 25.0801 31.5636 22.8396C31.0182 22.2615 30.3273 21.1774 30 20.4185C29.3818 18.9008 28.4727 14.9258 28.2909 12.7576L28.1818 11.3121L29.7091 11.2399C33.3455 11.1314 35.7818 7.91531 34.8727 4.48235C33.9273 0.904842 30.0364 -0.757434 26.8727 1.08552Z" fill="#E941A1"/>
<path d="M38.9457 36.327C36.3275 42.4361 37.4547 47.7452 41.6366 48.6906C43.5638 49.1634 44.7275 49.127 44.7275 48.6906C44.7275 48.2543 40.4366 35.6725 40.0002 34.9452C39.8547 34.6179 39.4911 35.0906 38.9457 36.327Z" fill="#E941A1"/>
<path d="M51.936 38.08C52.112 38.168 52.212 38.304 52.236 38.488C52.268 38.672 52.224 38.84 52.104 38.992C52.016 39.112 51.9 39.18 51.756 39.196C51.62 39.212 51.484 39.184 51.348 39.112C51.116 38.992 50.872 38.896 50.616 38.824C50.36 38.752 50.088 38.716 49.8 38.716C49.344 38.716 48.932 38.792 48.564 38.944C48.204 39.088 47.892 39.3 47.628 39.58C47.364 39.852 47.16 40.176 47.016 40.552C46.88 40.928 46.812 41.344 46.812 41.8C46.812 42.304 46.888 42.752 47.04 43.144C47.192 43.528 47.4 43.856 47.664 44.128C47.936 44.392 48.252 44.592 48.612 44.728C48.98 44.856 49.376 44.92 49.8 44.92C50.072 44.92 50.336 44.888 50.592 44.824C50.856 44.76 51.104 44.664 51.336 44.536C51.48 44.464 51.62 44.44 51.756 44.464C51.9 44.48 52.016 44.548 52.104 44.668C52.24 44.836 52.288 45.008 52.248 45.184C52.216 45.352 52.116 45.48 51.948 45.568C51.748 45.68 51.528 45.776 51.288 45.856C51.048 45.936 50.804 46 50.556 46.048C50.308 46.096 50.056 46.12 49.8 46.12C49.224 46.12 48.68 46.024 48.168 45.832C47.656 45.64 47.2 45.36 46.8 44.992C46.4 44.624 46.084 44.172 45.852 43.636C45.628 43.1 45.516 42.488 45.516 41.8C45.516 41.184 45.62 40.616 45.828 40.096C46.044 39.568 46.344 39.116 46.728 38.74C47.12 38.356 47.576 38.06 48.096 37.852C48.616 37.636 49.184 37.528 49.8 37.528C50.184 37.528 50.556 37.576 50.916 37.672C51.284 37.768 51.624 37.904 51.936 38.08ZM54.7649 45.388C54.7649 45.564 54.7049 45.712 54.5849 45.832C54.4729 45.944 54.3329 46 54.1649 46C53.9969 46 53.8529 45.944 53.7329 45.832C53.6209 45.712 53.5649 45.564 53.5649 45.388V37.732C53.5649 37.556 53.6249 37.412 53.7449 37.3C53.8649 37.18 54.0089 37.12 54.1769 37.12C54.3529 37.12 54.4929 37.18 54.5969 37.3C54.7089 37.412 54.7649 37.556 54.7649 37.732V45.388ZM59.3738 46.12C58.7098 46.12 58.1338 45.984 57.6458 45.712C57.1578 45.432 56.7778 45.052 56.5058 44.572C56.2418 44.084 56.1098 43.528 56.1098 42.904C56.1098 42.2 56.2498 41.6 56.5298 41.104C56.8178 40.6 57.1898 40.216 57.6458 39.952C58.1018 39.68 58.5858 39.544 59.0978 39.544C59.4898 39.544 59.8618 39.624 60.2138 39.784C60.5658 39.936 60.8778 40.152 61.1498 40.432C61.4298 40.704 61.6498 41.028 61.8098 41.404C61.9698 41.772 62.0538 42.176 62.0618 42.616C62.0538 42.776 61.9898 42.908 61.8698 43.012C61.7498 43.116 61.6098 43.168 61.4498 43.168H56.7818L56.4938 42.148H61.0058L60.7778 42.364V42.064C60.7618 41.784 60.6698 41.54 60.5018 41.332C60.3338 41.116 60.1258 40.952 59.8778 40.84C59.6298 40.72 59.3698 40.66 59.0978 40.66C58.8578 40.66 58.6258 40.7 58.4018 40.78C58.1858 40.852 57.9898 40.972 57.8138 41.14C57.6458 41.308 57.5098 41.532 57.4058 41.812C57.3098 42.084 57.2618 42.424 57.2618 42.832C57.2618 43.272 57.3538 43.656 57.5378 43.984C57.7218 44.312 57.9698 44.568 58.2818 44.752C58.5938 44.928 58.9378 45.016 59.3138 45.016C59.6098 45.016 59.8538 44.988 60.0458 44.932C60.2378 44.868 60.3978 44.792 60.5258 44.704C60.6538 44.616 60.7658 44.532 60.8618 44.452C60.9818 44.38 61.1018 44.344 61.2218 44.344C61.3658 44.344 61.4858 44.396 61.5818 44.5C61.6778 44.596 61.7258 44.712 61.7258 44.848C61.7258 45.024 61.6378 45.184 61.4618 45.328C61.2458 45.536 60.9458 45.72 60.5618 45.88C60.1858 46.04 59.7898 46.12 59.3738 46.12ZM68.637 39.592C68.813 39.592 68.957 39.652 69.069 39.772C69.181 39.884 69.237 40.028 69.237 40.204V45.388C69.237 45.564 69.181 45.712 69.069 45.832C68.957 45.944 68.813 46 68.637 46C68.469 46 68.325 45.944 68.205 45.832C68.093 45.712 68.037 45.564 68.037 45.388V44.524L68.289 44.56C68.289 44.704 68.229 44.864 68.109 45.04C67.997 45.216 67.841 45.388 67.641 45.556C67.441 45.716 67.205 45.852 66.933 45.964C66.661 46.068 66.369 46.12 66.057 46.12C65.505 46.12 65.009 45.98 64.569 45.7C64.129 45.412 63.781 45.02 63.525 44.524C63.269 44.028 63.141 43.464 63.141 42.832C63.141 42.184 63.269 41.616 63.525 41.128C63.781 40.632 64.125 40.244 64.557 39.964C64.997 39.684 65.485 39.544 66.021 39.544C66.365 39.544 66.681 39.6 66.969 39.712C67.265 39.824 67.521 39.968 67.737 40.144C67.953 40.32 68.117 40.508 68.229 40.708C68.349 40.9 68.409 41.084 68.409 41.26L68.037 41.296V40.204C68.037 40.036 68.093 39.892 68.205 39.772C68.325 39.652 68.469 39.592 68.637 39.592ZM66.189 45.016C66.565 45.016 66.897 44.92 67.185 44.728C67.473 44.536 67.697 44.276 67.857 43.948C68.017 43.612 68.097 43.24 68.097 42.832C68.097 42.416 68.017 42.044 67.857 41.716C67.697 41.388 67.473 41.128 67.185 40.936C66.897 40.744 66.565 40.648 66.189 40.648C65.821 40.648 65.493 40.744 65.205 40.936C64.925 41.128 64.701 41.388 64.533 41.716C64.373 42.044 64.293 42.416 64.293 42.832C64.293 43.24 64.373 43.612 64.533 43.948C64.701 44.276 64.925 44.536 65.205 44.728C65.493 44.92 65.821 45.016 66.189 45.016ZM74.1701 39.544C74.7381 39.544 75.1781 39.664 75.4901 39.904C75.8021 40.136 76.0181 40.452 76.1381 40.852C76.2661 41.244 76.3301 41.684 76.3301 42.172V45.388C76.3301 45.564 76.2701 45.712 76.1501 45.832C76.0381 45.944 75.8981 46 75.7301 46C75.5541 46 75.4101 45.944 75.2981 45.832C75.1861 45.712 75.1301 45.564 75.1301 45.388V42.184C75.1301 41.896 75.0901 41.64 75.0101 41.416C74.9301 41.184 74.7901 41 74.5901 40.864C74.3981 40.72 74.1261 40.648 73.7741 40.648C73.4461 40.648 73.1581 40.72 72.9101 40.864C72.6621 41 72.4661 41.184 72.3221 41.416C72.1861 41.64 72.1181 41.896 72.1181 42.184V45.388C72.1181 45.564 72.0581 45.712 71.9381 45.832C71.8261 45.944 71.6861 46 71.5181 46C71.3421 46 71.1981 45.944 71.0861 45.832C70.9741 45.712 70.9181 45.564 70.9181 45.388V40.3C70.9181 40.124 70.9741 39.98 71.0861 39.868C71.1981 39.748 71.3421 39.688 71.5181 39.688C71.6861 39.688 71.8261 39.748 71.9381 39.868C72.0581 39.98 72.1181 40.124 72.1181 40.3V40.972L71.9021 41.092C71.9581 40.916 72.0541 40.74 72.1901 40.564C72.3341 40.38 72.5061 40.212 72.7061 40.06C72.9061 39.9 73.1301 39.776 73.3781 39.688C73.6261 39.592 73.8901 39.544 74.1701 39.544ZM79.1243 45.388C79.1243 45.564 79.0683 45.712 78.9563 45.832C78.8443 45.944 78.7003 46 78.5243 46C78.3563 46 78.2123 45.944 78.0923 45.832C77.9803 45.712 77.9243 45.564 77.9243 45.388V40.252C77.9243 40.076 77.9803 39.932 78.0923 39.82C78.2123 39.7 78.3563 39.64 78.5243 39.64C78.7003 39.64 78.8443 39.7 78.9563 39.82C79.0683 39.932 79.1243 40.076 79.1243 40.252V45.388ZM78.5123 38.848C78.2803 38.848 78.1123 38.808 78.0083 38.728C77.9043 38.64 77.8523 38.496 77.8523 38.296V38.104C77.8523 37.904 77.9083 37.764 78.0203 37.684C78.1323 37.604 78.3003 37.564 78.5243 37.564C78.7643 37.564 78.9363 37.608 79.0403 37.696C79.1443 37.776 79.1963 37.912 79.1963 38.104V38.296C79.1963 38.504 79.1403 38.648 79.0283 38.728C78.9243 38.808 78.7523 38.848 78.5123 38.848ZM83.9904 39.544C84.5584 39.544 84.9984 39.664 85.3104 39.904C85.6224 40.136 85.8384 40.452 85.9584 40.852C86.0864 41.244 86.1504 41.684 86.1504 42.172V45.388C86.1504 45.564 86.0904 45.712 85.9704 45.832C85.8584 45.944 85.7184 46 85.5504 46C85.3744 46 85.2304 45.944 85.1184 45.832C85.0064 45.712 84.9504 45.564 84.9504 45.388V42.184C84.9504 41.896 84.9104 41.64 84.8304 41.416C84.7504 41.184 84.6104 41 84.4104 40.864C84.2184 40.72 83.9464 40.648 83.5944 40.648C83.2664 40.648 82.9784 40.72 82.7304 40.864C82.4824 41 82.2864 41.184 82.1424 41.416C82.0064 41.64 81.9384 41.896 81.9384 42.184V45.388C81.9384 45.564 81.8784 45.712 81.7584 45.832C81.6464 45.944 81.5064 46 81.3384 46C81.1624 46 81.0184 45.944 80.9064 45.832C80.7944 45.712 80.7384 45.564 80.7384 45.388V40.3C80.7384 40.124 80.7944 39.98 80.9064 39.868C81.0184 39.748 81.1624 39.688 81.3384 39.688C81.5064 39.688 81.6464 39.748 81.7584 39.868C81.8784 39.98 81.9384 40.124 81.9384 40.3V40.972L81.7224 41.092C81.7784 40.916 81.8744 40.74 82.0104 40.564C82.1544 40.38 82.3264 40.212 82.5264 40.06C82.7264 39.9 82.9504 39.776 83.1984 39.688C83.4464 39.592 83.7104 39.544 83.9904 39.544ZM90.4446 39.544C90.7886 39.544 91.1046 39.6 91.3926 39.712C91.6806 39.824 91.9286 39.968 92.1366 40.144C92.3526 40.312 92.5206 40.488 92.6406 40.672C92.7606 40.856 92.8206 41.016 92.8206 41.152L92.5446 41.164V40.204C92.5446 40.036 92.6006 39.892 92.7126 39.772C92.8246 39.652 92.9686 39.592 93.1446 39.592C93.3206 39.592 93.4646 39.652 93.5766 39.772C93.6886 39.884 93.7446 40.028 93.7446 40.204V45.496C93.7446 46.176 93.6006 46.728 93.3126 47.152C93.0246 47.584 92.6406 47.9 92.1606 48.1C91.6886 48.3 91.1686 48.4 90.6006 48.4C90.4006 48.4 90.1646 48.372 89.8926 48.316C89.6206 48.268 89.3686 48.208 89.1366 48.136C88.9126 48.064 88.7566 47.992 88.6686 47.92C88.4846 47.824 88.3606 47.712 88.2966 47.584C88.2406 47.456 88.2406 47.328 88.2966 47.2C88.3766 47.024 88.4846 46.916 88.6206 46.876C88.7566 46.836 88.9126 46.848 89.0886 46.912C89.1686 46.936 89.2926 46.98 89.4606 47.044C89.6286 47.108 89.8166 47.164 90.0246 47.212C90.2326 47.268 90.4286 47.296 90.6126 47.296C91.2526 47.296 91.7326 47.148 92.0526 46.852C92.3806 46.556 92.5446 46.152 92.5446 45.64V44.56L92.6766 44.644C92.6526 44.812 92.5766 44.984 92.4486 45.16C92.3286 45.328 92.1686 45.484 91.9686 45.628C91.7686 45.772 91.5366 45.892 91.2726 45.988C91.0166 46.076 90.7526 46.12 90.4806 46.12C89.9126 46.12 89.4046 45.98 88.9566 45.7C88.5086 45.412 88.1526 45.024 87.8886 44.536C87.6246 44.04 87.4926 43.472 87.4926 42.832C87.4926 42.192 87.6246 41.628 87.8886 41.14C88.1526 40.644 88.5046 40.256 88.9446 39.976C89.3926 39.688 89.8926 39.544 90.4446 39.544ZM90.6246 40.648C90.2326 40.648 89.8886 40.744 89.5926 40.936C89.2966 41.128 89.0646 41.388 88.8966 41.716C88.7286 42.044 88.6446 42.416 88.6446 42.832C88.6446 43.248 88.7286 43.62 88.8966 43.948C89.0646 44.276 89.2966 44.536 89.5926 44.728C89.8886 44.92 90.2326 45.016 90.6246 45.016C91.0166 45.016 91.3606 44.924 91.6566 44.74C91.9526 44.548 92.1846 44.288 92.3526 43.96C92.5206 43.624 92.6046 43.248 92.6046 42.832C92.6046 42.416 92.5206 42.044 92.3526 41.716C92.1846 41.38 91.9526 41.12 91.6566 40.936C91.3606 40.744 91.0166 40.648 90.6246 40.648ZM101.462 46.12C100.886 46.12 100.374 46.04 99.9262 45.88C99.4782 45.72 99.0502 45.456 98.6422 45.088C98.5542 45.024 98.4862 44.948 98.4382 44.86C98.3982 44.764 98.3782 44.668 98.3782 44.572C98.3782 44.42 98.4342 44.284 98.5462 44.164C98.6582 44.044 98.7982 43.984 98.9662 43.984C99.0942 43.984 99.2142 44.028 99.3262 44.116C99.6302 44.396 99.9462 44.608 100.274 44.752C100.61 44.896 101.002 44.968 101.45 44.968C101.77 44.968 102.062 44.916 102.326 44.812C102.598 44.708 102.814 44.568 102.974 44.392C103.134 44.216 103.214 44.012 103.214 43.78C103.214 43.492 103.13 43.256 102.962 43.072C102.802 42.88 102.566 42.724 102.254 42.604C101.95 42.476 101.582 42.368 101.15 42.28C100.75 42.208 100.39 42.108 100.07 41.98C99.7582 41.852 99.4902 41.692 99.2662 41.5C99.0422 41.3 98.8702 41.064 98.7502 40.792C98.6302 40.52 98.5702 40.204 98.5702 39.844C98.5702 39.356 98.6982 38.936 98.9542 38.584C99.2102 38.232 99.5582 37.96 99.9982 37.768C100.438 37.576 100.934 37.48 101.486 37.48C101.99 37.48 102.462 37.56 102.902 37.72C103.342 37.872 103.698 38.08 103.97 38.344C104.162 38.512 104.258 38.692 104.258 38.884C104.258 39.028 104.198 39.164 104.078 39.292C103.966 39.412 103.834 39.472 103.682 39.472C103.57 39.472 103.474 39.44 103.394 39.376C103.266 39.24 103.094 39.12 102.878 39.016C102.662 38.904 102.43 38.812 102.182 38.74C101.942 38.668 101.71 38.632 101.486 38.632C101.126 38.632 100.818 38.684 100.562 38.788C100.306 38.884 100.11 39.02 99.9742 39.196C99.8382 39.364 99.7702 39.564 99.7702 39.796C99.7702 40.068 99.8462 40.292 99.9982 40.468C100.158 40.644 100.378 40.788 100.658 40.9C100.938 41.004 101.258 41.1 101.618 41.188C102.058 41.284 102.45 41.392 102.794 41.512C103.146 41.632 103.442 41.788 103.682 41.98C103.922 42.164 104.106 42.396 104.234 42.676C104.362 42.956 104.426 43.304 104.426 43.72C104.426 44.2 104.29 44.62 104.018 44.98C103.746 45.34 103.386 45.62 102.938 45.82C102.498 46.02 102.006 46.12 101.462 46.12ZM108.71 46.12C108.046 46.12 107.47 45.984 106.982 45.712C106.494 45.432 106.114 45.052 105.842 44.572C105.578 44.084 105.446 43.528 105.446 42.904C105.446 42.2 105.586 41.6 105.866 41.104C106.154 40.6 106.526 40.216 106.982 39.952C107.438 39.68 107.922 39.544 108.434 39.544C108.826 39.544 109.198 39.624 109.55 39.784C109.902 39.936 110.214 40.152 110.486 40.432C110.766 40.704 110.986 41.028 111.146 41.404C111.306 41.772 111.39 42.176 111.398 42.616C111.39 42.776 111.326 42.908 111.206 43.012C111.086 43.116 110.946 43.168 110.786 43.168H106.118L105.83 42.148H110.342L110.114 42.364V42.064C110.098 41.784 110.006 41.54 109.838 41.332C109.67 41.116 109.462 40.952 109.214 40.84C108.966 40.72 108.706 40.66 108.434 40.66C108.194 40.66 107.962 40.7 107.738 40.78C107.522 40.852 107.326 40.972 107.15 41.14C106.982 41.308 106.846 41.532 106.742 41.812C106.646 42.084 106.598 42.424 106.598 42.832C106.598 43.272 106.69 43.656 106.874 43.984C107.058 44.312 107.306 44.568 107.618 44.752C107.93 44.928 108.274 45.016 108.65 45.016C108.946 45.016 109.19 44.988 109.382 44.932C109.574 44.868 109.734 44.792 109.862 44.704C109.99 44.616 110.102 44.532 110.198 44.452C110.318 44.38 110.438 44.344 110.558 44.344C110.702 44.344 110.822 44.396 110.918 44.5C111.014 44.596 111.062 44.712 111.062 44.848C111.062 45.024 110.974 45.184 110.798 45.328C110.582 45.536 110.282 45.72 109.898 45.88C109.522 46.04 109.126 46.12 108.71 46.12ZM113.354 46C113.178 46 113.034 45.944 112.922 45.832C112.81 45.712 112.754 45.564 112.754 45.388V40.3C112.754 40.124 112.81 39.98 112.922 39.868C113.034 39.748 113.178 39.688 113.354 39.688C113.522 39.688 113.662 39.748 113.774 39.868C113.894 39.98 113.954 40.124 113.954 40.3V41.644L113.834 41.128C113.898 40.904 113.994 40.696 114.122 40.504C114.258 40.312 114.418 40.144 114.602 40C114.786 39.856 114.99 39.744 115.214 39.664C115.446 39.584 115.686 39.544 115.934 39.544C116.142 39.544 116.322 39.6 116.474 39.712C116.626 39.824 116.702 39.964 116.702 40.132C116.702 40.348 116.646 40.508 116.534 40.612C116.422 40.708 116.298 40.756 116.162 40.756C116.042 40.756 115.926 40.732 115.814 40.684C115.702 40.628 115.57 40.6 115.418 40.6C115.25 40.6 115.078 40.644 114.902 40.732C114.726 40.82 114.566 40.952 114.422 41.128C114.278 41.296 114.162 41.496 114.074 41.728C113.994 41.96 113.954 42.22 113.954 42.508V45.388C113.954 45.564 113.894 45.712 113.774 45.832C113.662 45.944 113.522 46 113.354 46ZM118.511 39.628C118.631 39.628 118.743 39.66 118.847 39.724C118.959 39.788 119.039 39.884 119.087 40.012L120.971 44.368L120.743 44.476L122.651 40.024C122.763 39.76 122.943 39.632 123.191 39.64C123.351 39.64 123.483 39.692 123.587 39.796C123.699 39.892 123.755 40.02 123.755 40.18C123.755 40.228 123.747 40.28 123.731 40.336C123.715 40.384 123.695 40.432 123.671 40.48L121.391 45.616C121.287 45.856 121.115 45.984 120.875 46C120.755 46.016 120.635 45.992 120.515 45.928C120.403 45.856 120.315 45.752 120.251 45.616L117.983 40.48C117.967 40.448 117.951 40.408 117.935 40.36C117.919 40.304 117.911 40.24 117.911 40.168C117.911 40.048 117.963 39.928 118.067 39.808C118.179 39.688 118.327 39.628 118.511 39.628ZM126.105 45.388C126.105 45.564 126.049 45.712 125.937 45.832C125.825 45.944 125.681 46 125.505 46C125.337 46 125.193 45.944 125.073 45.832C124.961 45.712 124.905 45.564 124.905 45.388V40.252C124.905 40.076 124.961 39.932 125.073 39.82C125.193 39.7 125.337 39.64 125.505 39.64C125.681 39.64 125.825 39.7 125.937 39.82C126.049 39.932 126.105 40.076 126.105 40.252V45.388ZM125.493 38.848C125.261 38.848 125.093 38.808 124.989 38.728C124.885 38.64 124.833 38.496 124.833 38.296V38.104C124.833 37.904 124.889 37.764 125.001 37.684C125.113 37.604 125.281 37.564 125.505 37.564C125.745 37.564 125.917 37.608 126.021 37.696C126.125 37.776 126.177 37.912 126.177 38.104V38.296C126.177 38.504 126.121 38.648 126.009 38.728C125.905 38.808 125.733 38.848 125.493 38.848ZM130.515 39.544C130.947 39.544 131.331 39.592 131.667 39.688C132.003 39.776 132.263 39.904 132.447 40.072C132.639 40.232 132.735 40.42 132.735 40.636C132.735 40.772 132.695 40.9 132.615 41.02C132.535 41.132 132.415 41.188 132.255 41.188C132.143 41.188 132.047 41.168 131.967 41.128C131.895 41.088 131.827 41.04 131.763 40.984C131.699 40.928 131.619 40.872 131.523 40.816C131.435 40.768 131.303 40.728 131.127 40.696C130.959 40.664 130.807 40.648 130.671 40.648C130.247 40.648 129.879 40.744 129.567 40.936C129.263 41.128 129.023 41.388 128.847 41.716C128.679 42.044 128.595 42.416 128.595 42.832C128.595 43.248 128.679 43.62 128.847 43.948C129.023 44.276 129.259 44.536 129.555 44.728C129.859 44.92 130.211 45.016 130.611 45.016C130.851 45.016 131.047 45 131.199 44.968C131.351 44.928 131.483 44.88 131.595 44.824C131.715 44.752 131.815 44.68 131.895 44.608C131.983 44.528 132.103 44.488 132.255 44.488C132.431 44.488 132.563 44.544 132.651 44.656C132.747 44.76 132.795 44.892 132.795 45.052C132.795 45.228 132.687 45.4 132.471 45.568C132.263 45.728 131.983 45.86 131.631 45.964C131.279 46.068 130.891 46.12 130.467 46.12C129.843 46.12 129.299 45.976 128.835 45.688C128.379 45.4 128.023 45.008 127.767 44.512C127.519 44.016 127.395 43.456 127.395 42.832C127.395 42.2 127.527 41.64 127.791 41.152C128.055 40.656 128.423 40.264 128.895 39.976C129.367 39.688 129.907 39.544 130.515 39.544ZM136.882 46.12C136.218 46.12 135.642 45.984 135.154 45.712C134.666 45.432 134.286 45.052 134.014 44.572C133.75 44.084 133.618 43.528 133.618 42.904C133.618 42.2 133.758 41.6 134.038 41.104C134.326 40.6 134.698 40.216 135.154 39.952C135.61 39.68 136.094 39.544 136.606 39.544C136.998 39.544 137.37 39.624 137.722 39.784C138.074 39.936 138.386 40.152 138.658 40.432C138.938 40.704 139.158 41.028 139.318 41.404C139.478 41.772 139.562 42.176 139.57 42.616C139.562 42.776 139.498 42.908 139.378 43.012C139.258 43.116 139.118 43.168 138.958 43.168H134.29L134.002 42.148H138.514L138.286 42.364V42.064C138.27 41.784 138.178 41.54 138.01 41.332C137.842 41.116 137.634 40.952 137.386 40.84C137.138 40.72 136.878 40.66 136.606 40.66C136.366 40.66 136.134 40.7 135.91 40.78C135.694 40.852 135.498 40.972 135.322 41.14C135.154 41.308 135.018 41.532 134.914 41.812C134.818 42.084 134.77 42.424 134.77 42.832C134.77 43.272 134.862 43.656 135.046 43.984C135.23 44.312 135.478 44.568 135.79 44.752C136.102 44.928 136.446 45.016 136.822 45.016C137.118 45.016 137.362 44.988 137.554 44.932C137.746 44.868 137.906 44.792 138.034 44.704C138.162 44.616 138.274 44.532 138.37 44.452C138.49 44.38 138.61 44.344 138.73 44.344C138.874 44.344 138.994 44.396 139.09 44.5C139.186 44.596 139.234 44.712 139.234 44.848C139.234 45.024 139.146 45.184 138.97 45.328C138.754 45.536 138.454 45.72 138.07 45.88C137.694 46.04 137.298 46.12 136.882 46.12ZM140.554 45.016C140.482 44.904 140.45 44.776 140.458 44.632C140.466 44.48 140.55 44.352 140.71 44.248C140.822 44.176 140.938 44.148 141.058 44.164C141.186 44.172 141.306 44.232 141.418 44.344C141.642 44.592 141.89 44.788 142.162 44.932C142.442 45.076 142.778 45.148 143.17 45.148C143.33 45.14 143.494 45.116 143.662 45.076C143.83 45.028 143.974 44.948 144.094 44.836C144.214 44.716 144.274 44.544 144.274 44.32C144.274 44.12 144.21 43.96 144.082 43.84C143.954 43.72 143.786 43.624 143.578 43.552C143.37 43.472 143.146 43.4 142.906 43.336C142.65 43.264 142.39 43.184 142.126 43.096C141.87 43.008 141.638 42.896 141.43 42.76C141.222 42.616 141.05 42.432 140.914 42.208C140.786 41.984 140.722 41.708 140.722 41.38C140.722 41.004 140.826 40.68 141.034 40.408C141.25 40.136 141.526 39.924 141.862 39.772C142.206 39.62 142.578 39.544 142.978 39.544C143.21 39.544 143.454 39.576 143.71 39.64C143.966 39.696 144.214 39.788 144.454 39.916C144.694 40.044 144.902 40.212 145.078 40.42C145.158 40.524 145.202 40.648 145.21 40.792C145.226 40.936 145.162 41.064 145.018 41.176C144.922 41.256 144.806 41.292 144.67 41.284C144.534 41.276 144.422 41.232 144.334 41.152C144.182 40.96 143.986 40.812 143.746 40.708C143.506 40.596 143.234 40.54 142.93 40.54C142.778 40.54 142.618 40.564 142.45 40.612C142.29 40.652 142.154 40.728 142.042 40.84C141.93 40.952 141.874 41.116 141.874 41.332C141.874 41.532 141.938 41.692 142.066 41.812C142.202 41.932 142.378 42.032 142.594 42.112C142.81 42.192 143.046 42.264 143.302 42.328C143.55 42.392 143.794 42.468 144.034 42.556C144.282 42.644 144.502 42.76 144.694 42.904C144.894 43.04 145.054 43.22 145.174 43.444C145.302 43.66 145.366 43.936 145.366 44.272C145.366 44.664 145.25 45 145.018 45.28C144.794 45.552 144.506 45.76 144.154 45.904C143.81 46.048 143.446 46.12 143.062 46.12C142.606 46.12 142.15 46.04 141.694 45.88C141.246 45.712 140.866 45.424 140.554 45.016Z" fill="#E941A1"/>
<path d="M48.059 17.877C48.243 17.877 48.4347 17.923 48.634 18.015C48.8333 18.107 48.9867 18.2373 49.094 18.406L54.936 27.307L53.947 27.261L59.904 18.406C60.1493 18.0533 60.4637 17.877 60.847 17.877C61.1537 17.877 61.422 17.992 61.652 18.222C61.8973 18.4367 62.02 18.7127 62.02 19.05V32.827C62.02 33.1643 61.9127 33.448 61.698 33.678C61.4833 33.8927 61.1997 34 60.847 34C60.479 34 60.18 33.8927 59.95 33.678C59.7353 33.448 59.628 33.1643 59.628 32.827V21.166L60.364 21.327L55.304 29.032C55.1967 29.17 55.0587 29.2927 54.89 29.4C54.7213 29.492 54.545 29.5303 54.361 29.515C54.1923 29.5303 54.016 29.492 53.832 29.4C53.6633 29.2927 53.5253 29.17 53.418 29.032L48.542 21.442L49.094 20.522V32.827C49.094 33.1643 48.9867 33.448 48.772 33.678C48.5727 33.8927 48.3043 34 47.967 34C47.645 34 47.3767 33.8927 47.162 33.678C46.9627 33.448 46.863 33.1643 46.863 32.827V19.05C46.863 18.728 46.978 18.452 47.208 18.222C47.4533 17.992 47.737 17.877 48.059 17.877ZM77.1141 27.951C77.1141 29.1777 76.8458 30.2663 76.3091 31.217C75.7724 32.1523 75.0441 32.8883 74.1241 33.425C73.2041 33.9617 72.1691 34.23 71.0191 34.23C69.8691 34.23 68.8341 33.9617 67.9141 33.425C66.9941 32.8883 66.2581 32.1523 65.7061 31.217C65.1694 30.2663 64.9011 29.1777 64.9011 27.951C64.9011 26.709 65.1694 25.6203 65.7061 24.685C66.2581 23.7343 66.9941 22.9907 67.9141 22.454C68.8341 21.902 69.8691 21.626 71.0191 21.626C72.1691 21.626 73.2041 21.902 74.1241 22.454C75.0441 22.9907 75.7724 23.7343 76.3091 24.685C76.8458 25.6203 77.1141 26.709 77.1141 27.951ZM74.8141 27.951C74.8141 27.1077 74.6454 26.3793 74.3081 25.766C73.9708 25.1373 73.5108 24.6467 72.9281 24.294C72.3608 23.926 71.7244 23.742 71.0191 23.742C70.3138 23.742 69.6698 23.926 69.0871 24.294C68.5044 24.6467 68.0444 25.1373 67.7071 25.766C67.3698 26.3793 67.2011 27.1077 67.2011 27.951C67.2011 28.7637 67.3698 29.4843 67.7071 30.113C68.0444 30.7417 68.5044 31.2323 69.0871 31.585C69.6698 31.9377 70.3138 32.114 71.0191 32.114C71.7244 32.114 72.3608 31.9377 72.9281 31.585C73.5108 31.2323 73.9708 30.7417 74.3081 30.113C74.6454 29.4843 74.8141 28.7637 74.8141 27.951ZM85.9504 21.626C87.0391 21.626 87.8824 21.856 88.4804 22.316C89.0784 22.7607 89.4924 23.3663 89.7224 24.133C89.9678 24.8843 90.0904 25.7277 90.0904 26.663V32.827C90.0904 33.1643 89.9754 33.448 89.7454 33.678C89.5308 33.8927 89.2624 34 88.9404 34C88.6031 34 88.3271 33.8927 88.1124 33.678C87.8978 33.448 87.7904 33.1643 87.7904 32.827V26.686C87.7904 26.134 87.7138 25.6433 87.5604 25.214C87.4071 24.7693 87.1388 24.4167 86.7554 24.156C86.3874 23.88 85.8661 23.742 85.1914 23.742C84.5628 23.742 84.0108 23.88 83.5354 24.156C83.0601 24.4167 82.6844 24.7693 82.4084 25.214C82.1478 25.6433 82.0174 26.134 82.0174 26.686V32.827C82.0174 33.1643 81.9024 33.448 81.6724 33.678C81.4578 33.8927 81.1894 34 80.8674 34C80.5301 34 80.2541 33.8927 80.0394 33.678C79.8248 33.448 79.7174 33.1643 79.7174 32.827V23.075C79.7174 22.7377 79.8248 22.4617 80.0394 22.247C80.2541 22.017 80.5301 21.902 80.8674 21.902C81.1894 21.902 81.4578 22.017 81.6724 22.247C81.9024 22.4617 82.0174 22.7377 82.0174 23.075V24.363L81.6034 24.593C81.7108 24.2557 81.8948 23.9183 82.1554 23.581C82.4314 23.2283 82.7611 22.9063 83.1444 22.615C83.5278 22.3083 83.9571 22.0707 84.4324 21.902C84.9078 21.718 85.4138 21.626 85.9504 21.626ZM103.197 21.718C103.534 21.718 103.81 21.833 104.025 22.063C104.239 22.2777 104.347 22.5537 104.347 22.891V32.827C104.347 33.1643 104.239 33.448 104.025 33.678C103.81 33.8927 103.534 34 103.197 34C102.875 34 102.599 33.8927 102.369 33.678C102.154 33.448 102.047 33.1643 102.047 32.827V31.171L102.53 31.24C102.53 31.516 102.415 31.8227 102.185 32.16C101.97 32.4973 101.671 32.827 101.288 33.149C100.904 33.4557 100.452 33.7163 99.9308 33.931C99.4095 34.1303 98.8498 34.23 98.2518 34.23C97.1938 34.23 96.2432 33.9617 95.3998 33.425C94.5565 32.873 93.8895 32.1217 93.3988 31.171C92.9082 30.2203 92.6628 29.1393 92.6628 27.928C92.6628 26.686 92.9082 25.5973 93.3988 24.662C93.8895 23.7113 94.5488 22.9677 95.3768 22.431C96.2202 21.8943 97.1555 21.626 98.1828 21.626C98.8422 21.626 99.4478 21.7333 99.9998 21.948C100.567 22.1627 101.058 22.4387 101.472 22.776C101.886 23.1133 102.2 23.4737 102.415 23.857C102.645 24.225 102.76 24.5777 102.76 24.915L102.047 24.984V22.891C102.047 22.569 102.154 22.293 102.369 22.063C102.599 21.833 102.875 21.718 103.197 21.718ZM98.5048 32.114C99.2255 32.114 99.8618 31.93 100.414 31.562C100.966 31.194 101.395 30.6957 101.702 30.067C102.008 29.423 102.162 28.71 102.162 27.928C102.162 27.1307 102.008 26.4177 101.702 25.789C101.395 25.1603 100.966 24.662 100.414 24.294C99.8618 23.926 99.2255 23.742 98.5048 23.742C97.7995 23.742 97.1708 23.926 96.6188 24.294C96.0822 24.662 95.6528 25.1603 95.3308 25.789C95.0242 26.4177 94.8708 27.1307 94.8708 27.928C94.8708 28.71 95.0242 29.423 95.3308 30.067C95.6528 30.6957 96.0822 31.194 96.6188 31.562C97.1708 31.93 97.7995 32.114 98.5048 32.114ZM110.053 32.827C110.053 33.1643 109.938 33.448 109.708 33.678C109.493 33.8927 109.225 34 108.903 34C108.581 34 108.305 33.8927 108.075 33.678C107.86 33.448 107.753 33.1643 107.753 32.827V18.153C107.753 17.8157 107.868 17.5397 108.098 17.325C108.328 17.095 108.604 16.98 108.926 16.98C109.263 16.98 109.532 17.095 109.731 17.325C109.946 17.5397 110.053 17.8157 110.053 18.153V32.827ZM115.638 32.827C115.638 33.1643 115.531 33.448 115.316 33.678C115.102 33.8927 114.826 34 114.488 34C114.166 34 113.89 33.8927 113.66 33.678C113.446 33.448 113.338 33.1643 113.338 32.827V22.983C113.338 22.6457 113.446 22.3697 113.66 22.155C113.89 21.925 114.166 21.81 114.488 21.81C114.826 21.81 115.102 21.925 115.316 22.155C115.531 22.3697 115.638 22.6457 115.638 22.983V32.827ZM114.465 20.292C114.021 20.292 113.699 20.2153 113.499 20.062C113.3 19.8933 113.2 19.6173 113.2 19.234V18.866C113.2 18.4827 113.308 18.2143 113.522 18.061C113.737 17.9077 114.059 17.831 114.488 17.831C114.948 17.831 115.278 17.9153 115.477 18.084C115.677 18.2373 115.776 18.498 115.776 18.866V19.234C115.776 19.6327 115.669 19.9087 115.454 20.062C115.255 20.2153 114.925 20.292 114.465 20.292ZM126.414 31.884C126.721 31.884 126.974 31.9837 127.173 32.183C127.388 32.3823 127.495 32.6353 127.495 32.942C127.495 33.2333 127.388 33.4863 127.173 33.701C126.974 33.9003 126.721 34 126.414 34H118.985C118.663 34 118.402 33.885 118.203 33.655C118.004 33.4097 117.912 33.172 117.927 32.942C117.942 32.758 117.965 32.597 117.996 32.459C118.042 32.3057 118.142 32.137 118.295 31.953L124.436 23.811V24.087H119.307C119 24.087 118.74 23.9873 118.525 23.788C118.326 23.5733 118.226 23.3203 118.226 23.029C118.226 22.7223 118.326 22.4693 118.525 22.27C118.74 22.0707 119 21.971 119.307 21.971H126.391C126.682 21.971 126.928 22.086 127.127 22.316C127.342 22.5307 127.434 22.799 127.403 23.121C127.403 23.259 127.38 23.397 127.334 23.535C127.303 23.6577 127.219 23.8033 127.081 23.972L121.032 32.022L120.94 31.884H126.414ZM139.741 21.718C140.078 21.718 140.354 21.833 140.569 22.063C140.783 22.2777 140.891 22.5537 140.891 22.891V32.827C140.891 33.1643 140.783 33.448 140.569 33.678C140.354 33.8927 140.078 34 139.741 34C139.419 34 139.143 33.8927 138.913 33.678C138.698 33.448 138.591 33.1643 138.591 32.827V31.171L139.074 31.24C139.074 31.516 138.959 31.8227 138.729 32.16C138.514 32.4973 138.215 32.827 137.832 33.149C137.448 33.4557 136.996 33.7163 136.475 33.931C135.953 34.1303 135.394 34.23 134.796 34.23C133.738 34.23 132.787 33.9617 131.944 33.425C131.1 32.873 130.433 32.1217 129.943 31.171C129.452 30.2203 129.207 29.1393 129.207 27.928C129.207 26.686 129.452 25.5973 129.943 24.662C130.433 23.7113 131.093 22.9677 131.921 22.431C132.764 21.8943 133.699 21.626 134.727 21.626C135.386 21.626 135.992 21.7333 136.544 21.948C137.111 22.1627 137.602 22.4387 138.016 22.776C138.43 23.1133 138.744 23.4737 138.959 23.857C139.189 24.225 139.304 24.5777 139.304 24.915L138.591 24.984V22.891C138.591 22.569 138.698 22.293 138.913 22.063C139.143 21.833 139.419 21.718 139.741 21.718ZM135.049 32.114C135.769 32.114 136.406 31.93 136.958 31.562C137.51 31.194 137.939 30.6957 138.246 30.067C138.552 29.423 138.706 28.71 138.706 27.928C138.706 27.1307 138.552 26.4177 138.246 25.789C137.939 25.1603 137.51 24.662 136.958 24.294C136.406 23.926 135.769 23.742 135.049 23.742C134.343 23.742 133.715 23.926 133.163 24.294C132.626 24.662 132.197 25.1603 131.875 25.789C131.568 26.4177 131.415 27.1307 131.415 27.928C131.415 28.71 131.568 29.423 131.875 30.067C132.197 30.6957 132.626 31.194 133.163 31.562C133.715 31.93 134.343 32.114 135.049 32.114Z" fill="#E941A1"/>
</svg>
