<svg width="189" height="213" viewBox="0 0 189 213" fill="none" xmlns="http://www.w3.org/2000/svg">
<path d="M50.6048 117.498C60.7049 88.793 45.4117 52.4852 42.4028 46.2058L56.6678 39.3703L65.7858 58.3985L103.826 40.1705L94.7078 21.1422L113.728 12.0282C108.713 1.56269 96.0509 -2.89868 85.5899 2.11404L19.0198 34.0132L23.5788 43.5273C23.9435 44.2884 44.3065 87.7599 35.6917 112.244L50.6048 117.498ZM9.50981 38.5702L18.6278 57.5984L9.11777 62.1554L-0.000199284 43.1272L9.50981 38.5702ZM74.1196 124.597C84.0217 96.4549 70.3447 67.9126 70.3447 67.9126L108.385 49.6846L117.503 68.7128C122.062 78.2269 122.062 78.2269 136.131 83.184C150.2 88.141 154.759 97.6551 154.759 97.6551L186.672 164.254C191.686 174.719 187.231 187.383 176.77 192.396L138.729 210.624C128.268 215.637 115.606 211.176 110.592 200.71L74.1196 124.597Z" fill="#E941A1"/>
</svg>
