<svg width="141" height="221" viewBox="0 0 141 221" fill="none" xmlns="http://www.w3.org/2000/svg">
<path d="M0.864464 202.985L8.05285 58.0263L140.105 82.3425L95.1878 220.354L0.864464 202.985ZM60.1842 145.643C68.0445 147.09 75.2323 145.57 81.7477 141.081C88.263 136.592 92.2444 130.417 93.6918 122.557L97.1655 103.692L78.3009 100.218L74.8271 119.083C74.335 121.755 73.0167 123.83 70.8722 125.308C68.7277 126.785 66.323 127.276 63.6579 126.778C60.9854 126.286 58.9104 124.968 57.4329 122.823C55.9554 120.679 55.4652 118.274 55.9625 115.609L59.4362 96.7445L40.5716 93.2708L37.0978 112.135C35.6504 119.996 37.1712 127.184 41.6603 133.699C46.1493 140.214 52.3239 144.196 60.1842 145.643ZM104.113 65.9627C100.183 65.239 97.0943 63.2464 94.8472 59.985C92.6001 56.7236 91.841 53.1316 92.5698 49.2089C93.2935 45.2787 95.2861 42.1901 98.5475 39.943C101.809 37.696 105.401 36.9369 109.324 37.6657C113.254 38.3894 116.342 40.3819 118.589 43.6433C120.837 46.9047 121.596 50.4968 120.867 54.4195C120.143 58.3496 118.151 61.4382 114.889 63.6853C111.628 65.9324 108.036 66.6915 104.113 65.9627ZM58.6882 47.846C52.0856 46.6302 46.9246 43.3231 43.2051 37.9246C39.4856 32.5262 38.2338 26.5256 39.4496 19.923C40.6654 13.3204 43.9725 8.15932 49.371 4.43984C54.7694 0.720372 60.77 -0.531461 67.3726 0.684348C73.9752 1.90016 79.1363 5.20728 82.8557 10.6057C86.5752 16.0042 87.827 22.0047 86.6112 28.6073C85.3954 35.21 82.0883 40.371 76.6898 44.0905C71.2914 47.81 65.2909 49.0618 58.6882 47.846Z" fill="#E941A1"/>
</svg>
